<?xml version="1.0" encoding="UTF-8"?>
<svg xmlns="http://www.w3.org/2000/svg" xmlns:xlink="http://www.w3.org/1999/xlink" viewBox="0 0 750 500">
  <defs>
    <style>
      .cls-1 {
        stroke-width: 3px;
      }

      .cls-1, .cls-2, .cls-3, .cls-4, .cls-5, .cls-6, .cls-7, .cls-8, .cls-9, .cls-10, .cls-11, .cls-12, .cls-13, .cls-14, .cls-15, .cls-16, .cls-17, .cls-18, .cls-19, .cls-20, .cls-21, .cls-22, .cls-23, .cls-24, .cls-25, .cls-26, .cls-27, .cls-28, .cls-29, .cls-30, .cls-31, .cls-32, .cls-33, .cls-34, .cls-35, .cls-36, .cls-37, .cls-38, .cls-39, .cls-40, .cls-41 {
        fill: none;
      }

      .cls-1, .cls-2, .cls-3, .cls-4, .cls-5, .cls-6, .cls-7, .cls-8, .cls-9, .cls-10, .cls-11, .cls-12, .cls-13, .cls-14, .cls-15, .cls-16, .cls-17, .cls-18, .cls-19, .cls-20, .cls-22, .cls-23, .cls-24, .cls-25, .cls-26, .cls-27, .cls-28, .cls-29, .cls-30, .cls-31, .cls-32, .cls-33, .cls-34, .cls-35, .cls-36, .cls-37, .cls-38, .cls-39, .cls-40, .cls-41 {
        stroke: #000;
        stroke-dasharray: 0 14;
        stroke-linecap: round;
        stroke-linejoin: round;
      }

      .cls-42 {
        letter-spacing: 0em;
      }

      .cls-2 {
        stroke-width: 4px;
      }

      .cls-3 {
        stroke-width: 6px;
      }

      .cls-4 {
        stroke-width: .5px;
      }

      .cls-43 {
        fill: #a1a0a8;
        font-family: MyriadPro-Regular, 'Myriad Pro';
        font-size: 8px;
      }

      .cls-5 {
        stroke-width: 10px;
      }

      .cls-6 {
        stroke-width: 9.25px;
      }

      .cls-7 {
        stroke-width: 1.75px;
      }

      .cls-8 {
        stroke-width: 6.5px;
      }

      .cls-9 {
        stroke-width: 4.75px;
      }

      .cls-10 {
        stroke-width: 1px;
      }

      .cls-11 {
        stroke-width: 9.75px;
      }

      .cls-12 {
        stroke-width: 6.75px;
      }

      .cls-13 {
        stroke-width: 5.5px;
      }

      .cls-44 {
        fill: #fff;
      }

      .cls-14 {
        stroke-width: 9px;
      }

      .cls-15 {
        stroke-width: .75px;
      }

      .cls-16 {
        stroke-width: 2.75px;
      }

      .cls-17 {
        stroke-width: 2px;
      }

      .cls-18 {
        stroke-width: 8.75px;
      }

      .cls-19 {
        stroke-width: 4.25px;
      }

      .cls-20 {
        stroke-width: 8.25px;
      }

      .cls-22 {
        stroke-width: 7.25px;
      }

      .cls-45 {
        letter-spacing: -.01em;
      }

      .cls-23 {
        stroke-width: .25px;
      }

      .cls-24 {
        stroke-width: 1.25px;
      }

      .cls-25 {
        stroke-width: 5.75px;
      }

      .cls-26 {
        stroke-width: 2.25px;
      }

      .cls-27 {
        stroke-width: 8px;
      }

      .cls-28 {
        stroke-width: 3.25px;
      }

      .cls-29 {
        stroke-width: 9.5px;
      }

      .cls-46 {
        letter-spacing: 0em;
      }

      .cls-30 {
        stroke-width: 7px;
      }

      .cls-47 {
        letter-spacing: -.03em;
      }

      .cls-31 {
        stroke-width: 3.5px;
      }

      .cls-32 {
        stroke-width: 4.5px;
      }

      .cls-48 {
        letter-spacing: .01em;
      }

      .cls-33 {
        stroke-width: 1.5px;
      }

      .cls-34 {
        stroke-width: 5.25px;
      }

      .cls-35 {
        stroke-width: 6.25px;
      }

      .cls-36 {
        stroke-width: 3.75px;
      }

      .cls-37 {
        stroke-width: 7.75px;
      }

      .cls-38 {
        stroke-width: 5px;
      }

      .cls-49 {
        clip-path: url(#clippath);
      }

      .cls-39 {
        stroke-width: 7.5px;
      }

      .cls-40 {
        stroke-width: 8.5px;
      }

      .cls-41 {
        stroke-width: 2.5px;
      }
    </style>
    <clipPath id="clippath">
      <rect class="cls-21" width="750" height="500"/>
    </clipPath>
  </defs>
  <g id="BACKGROUND">
    <rect class="cls-44" width="750" height="500"/>
  </g>
  <g id="OBJECTS">
    <g class="cls-49">
      <g>
        <path class="cls-23" d="M27.11-85.1C64.14-75.73,89.9-32.17,102.36.88c6.58,17.45,11.04,36.12,9.11,54.69-3.35,32.13-13.54,66.78,14.18,89.17,22.5,18.18,48.43,15.94,77.31,12.64,22.84-2.61,50.83-6.84,66.59,14.43,21.16,28.54,18.79,73.9,43.75,98.59,26.87,26.59,78.33,28.83,114.06,29.08,20.26.14,40.53-1.43,60.55-4.54,18.58-2.88,44.65-15.13,62.26-7.72,17.17,7.22,30.51,25.29,39.66,40.6,11.83,19.8,30.8,34.94,51.51,44.48,20.35,9.38,40.85,15.23,62.33,14.17,42.4-2.09,96.25-20.21,139.81-2.56,20.91,8.47,38.6,23.6,58.79,33.6"/>
        <path class="cls-4" d="M18.94-76.79c37.02,9.39,63.61,52.19,74.95,85.92,8.27,24.59,5.88,40.89,1.22,65.99-5.88,31.65-1.69,65.02,25.01,84.03,23.42,16.68,47.47,15.99,76.15,12.07,21.77-2.98,48.35-8.22,64.25,11.49,10.59,13.14,17.12,31.87,20.83,48.05,4.12,17.98,4.42,38.34,18.48,51.83,26.9,25.81,82.11,26.48,117.19,27.62,21.68.7,43.38-.2,64.93-2.65,18.84-2.14,48.53-14.58,65.3-10.11,17.8,4.74,27.65,25.42,37.11,39.47,12.05,17.89,30.48,29.87,51.52,38.57,20.1,8.31,42.09,14.61,62.61,15.01,42.28.83,94.34-16.52,137.73.94,20.74,8.34,38.15,23.71,57.88,34.06"/>
        <path class="cls-15" d="M10.95-68.43C47.83-59.08,75.1-17.01,85.03,17.28c8.33,28.77-2.59,49.77-4.85,78.86-2.44,31.39,11.45,59.34,36.59,76.13,23.37,15.6,45.63,17.51,73.83,13.02,20.55-3.27,45.78-9.12,61.44,9.03,11.51,13.34,17.12,30.9,18.58,48.1,1.56,18.31-.1,40.14,14.8,53.4,27.3,24.29,86.22,22.8,120.63,24.61,45.1,2.37,93.1,1.28,135.23-8.93,18.94-4.59,29.11,23.3,36.65,34.82,11.45,17.48,32.99,26.57,52.21,32.67,20.72,6.57,42.88,12.42,63.66,14.36,43.01,4.03,92.1-12.92,135.49,4.82,20.57,8.41,37.64,24.17,56.92,35.03"/>
        <path class="cls-10" d="M3.05-60.06C39.67-50.77,67.48-9.42,75.75,25.35c7.11,29.91-8.42,57.14-5.31,87.5,3.21,31.34,20.15,54.41,45.01,71.2,22.59,15.26,42.84,20.16,70.34,15.65,19.29-3.16,43.25-9.69,58.08,7.19,12.25,13.94,15.82,30.54,15.93,48.86.1,18.17-6.12,41.92,10.27,54.59,13.78,10.65,34.52,11.37,51.48,13.29,24.23,2.74,48.6,4.77,72.93,6.41,45.6,3.08,91.43,2.72,136.83-1.68,27.48-2.66,25.78,8.65,39.08,27.66,11.53,16.48,34.78,23.04,53.54,27.02,21.56,4.57,44.11,9.23,65.47,12.31,43.06,6.21,90.57-9.4,133.24,8.75,20.41,8.68,37.09,24.98,55.9,36.51"/>
        <path class="cls-24" d="M-4.82-51.67C31.43-42.49,59.91-1.66,66.07,33.32c5.53,31.44-11.43,60.63-1.41,93.22,8.64,28.11,28.24,51.09,51.36,67.95,21.37,15.58,39.02,23.97,65.63,20.15,18.07-2.6,39.84-9.13,54.11,6.11,12.58,13.44,13.6,31.78,12.71,49.56-.68,13.62-8.85,48.23,5.37,56.14,16.84,9.37,41.5,7.47,60.41,8.31,22.74,1.01,45.43,2.59,68.14,4.28,46.03,3.44,92.72,4.51,138.12,5.45,8.81.18,23.75-2.31,30.44,3.03,5.43,4.33,6.56,13.07,10.71,18.48,12.03,15.65,36.98,19.83,55.5,21.87,22.84,2.52,45.56,5.12,68.07,8.91,42.7,7.19,89.58-6.23,131.07,12.51,20.27,9.16,36.49,26.15,54.84,38.48"/>
        <path class="cls-33" d="M-12.73-43.3C23.09-34.24,51.91,6,55.99,41.2c1.68,14.55-4.08,28.06-5.06,42.68-1.27,18.89,2.41,37.33,10.97,54.2,12.69,25,35.03,47.54,56.28,65.55,18.76,15.9,33.89,29.51,59.7,26.53,18.11-2.09,35.1-7.37,50.28,5.68,25.52,21.93-4.75,90.75,9.85,107.74,8.18,9.52,42.5,2.6,59.34,2.02,24.22-.83,48.35.05,72.51,1.85,46.35,3.46,93.2,7.41,139.13,12.21,17.27,1.81,33.54,2.48,42.7,16.48,9.38,14.34,39.5,17.15,58.05,17.46,24.36.41,47.06-.46,71.43,4.27,42.94,8.34,88.38-3.88,129.03,15.97,20.14,9.84,35.84,27.68,53.74,40.93"/>
        <path class="cls-7" d="M-20.71-34.94C14.64-26.02,45.51,15.5,45.54,49c.04,35.81-7.21,65.95,16.17,98.93,16.97,23.94,40.77,42.25,60.34,63.8,14.78,16.27,28.14,35.51,52.05,35.02,16.39-.34,34.94-7.29,46.64,4.53,22.65,22.87-9.3,75.28,5.72,106.83,6.62,13.9,44.15.49,56.16-1.03,24.75-3.15,49.56-3.4,74.44-1.8,47.06,3.02,94.82,15.53,139.91,17.68,14.99.71,31.86,2.5,43.5,13.28,15.3,14.17,42.14,14.83,61.17,14.03,25.36-1.06,49.4-6.27,75.52-1.44,42.31,7.82,87.95-1.93,127.16,19.06,20.03,10.72,35.15,29.57,52.61,43.85"/>
        <path class="cls-17" d="M-28.81-26.61C8.49-16.39,37.21,23.95,33,61.86c-8.38,75.57,53.68,106.52,93.2,158.23,11.46,15,22.04,42.35,43.75,44.19,12.58,1.06,34.71-8.09,42.31,2.62,18.7,26.33-17.17,73.43,3.29,105.42,10.97,17.15,37.31.6,52.31-2.94,25.08-5.91,50.55-7.84,76.26-6.75,47.58,2.01,95.76,14.53,140.79,18.25,9.09.75,16.84,2.37,25.17,7.44,5.84,3.56,10.83,7.55,16.94,9.05,19.59,4.81,42.37,12.83,65.83,10.53,26.74-2.62,52.24-12.67,80.3-8.02,41.65,6.91,87.69-.61,125.45,21.79,20.04,11.89,34.32,32.07,51.8,47.24"/>
        <path class="cls-26" d="M-37.04-18.31C-18.53-13.24-3.1-.79,7.88,14.67c15.04,21.19,13.07,40.14,13.55,63.97,1.33,65.74,75.36,97.51,108.19,150.43,8.04,12.95,16.68,50.91,35.13,54.66,12.73,2.59,30.69-14.77,37.98-1.56,14.54,26.36-21.36,72.42,2.74,103.77,12.84,16.7,32.73,2.19,47.81-3.23,25.22-9.07,51.15-13.35,77.93-13.15,46.9.36,97.56,9.09,141.37,17.3,8.8,1.65,15.88,4.11,23.32,10.23,5.43,4.47,8.96,10.88,15.73,11.92,9.83,1.51,21.44,5.49,32.38,7.31,13.22,2.2,26.58,1.78,39.33.03,28.71-3.94,54.81-19.12,85.68-15.21,41.48,5.26,87.6-.17,123.9,24.25,20.4,13.72,32.21,35.74,51.21,50.93"/>
        <path class="cls-41" d="M-45.4-10.04C-27.07-5.03-11.69,7.28-1.08,22.81c15.33,22.44,9.73,45.26,14.91,69.81,13.07,61.86,91.53,90.45,117.99,146.2,6.62,13.94,10.1,29.33,15.34,44.25,2.99,8.51,2.66,13.39,12.69,14.16,10.08.77,27.88-13.3,32.35-.51,9.91,28.33-23.21,72.26,4.23,102.18,14.23,15.52,30.59.68,45.25-6.49,24.16-11.81,50.44-18.37,77.3-19.57,46.43-2.07,99.02,6.67,141.11,18.5,8.6,2.42,15.15,5.65,21.95,12.51,5.19,5.24,7.82,11.32,15.1,14.25,22.55,9.08,52.46,10.65,76.04,7.44,31.15-4.25,58-25.85,91.57-22.7,41.87,3.92,87.07-.09,122.44,26.58,20.15,15.19,31.26,38.78,50.81,54.71"/>
        <path class="cls-16" d="M-53.89-1.79C-35.76,3.15-20.45,15.31-10.22,30.91,4.16,52.84-.45,81.52,9.65,104.37c25.19,56.98,102.68,83.89,122.71,145.03,4.2,12.8,6.46,51.27,21.6,56.44,8.54,2.92,24.47-7.77,26.86,4.34,5.91,29.99-22.63,75.61,7.93,100.9,10.38,8.59,27.8-1.35,38.26-7.1,24.85-13.68,50.87-23.68,79.26-26.95,46.28-5.33,98.09,6.4,141.33,17.58,17.8,4.6,21.41,22.57,36.12,30.47,21.51,11.55,54.6,13.69,78.74,10.11,34.17-5.08,61.9-31.98,97.85-30.16,42.69,2.17,86.3.34,121.02,29.01,19.68,16.25,30.45,41.69,50.62,58.26"/>
        <path class="cls-1" d="M-62.49,6.42c17.75,4.83,33.38,16.89,43.06,32.49,6.03,9.72,6.17,14.19,7.8,25.88,2.59,18.64,9.86,34.69,19.92,49.62,34.81,51.62,108.44,79.6,122.49,146.4,2.54,12.08,3.45,44.56,15.37,51.7,7.17,4.29,21.89-1.72,22.52,9.78,1.3,23.66-22.75,84.39,13.19,96.5,11.62,3.92,23.88.64,34.58-4.72,25.47-12.74,48.08-26.04,76.62-31.56,46.16-8.94,98.95.85,142.15,14.48,17.61,5.56,21.69,24.37,36.3,33.4,22.61,13.98,54.44,17.16,79.79,14.6,35.98-3.64,66.21-36.72,104.39-37.17,43.52-.51,89.96-.71,119.52,32.05,16.51,18.3,30.38,44.31,50.71,60.97"/>
        <path class="cls-28" d="M-71.17,14.62c16.76,4.56,34.06,16.61,42.35,32.33,5.14,9.74,5.38,20.34,9.17,30.74,6.33,17.4,17.01,32.13,28.88,45.53,39.49,44.58,110.9,76.53,116.4,144.15,1.06,12.97.29,39.95,10.93,49.87,6.38,5.95,19.83,4.12,19.37,15.63-1.04,26.22-17.19,80.22,19.36,91.77,11.34,3.58,23.71,1.79,34.66-3.04,23.77-10.47,43.74-25.28,69.48-32.36,46.31-12.74,99.7-6.06,143.57,9.59,17.57,6.26,22.8,25.91,37.61,35.67,23.24,15.31,52.45,21.32,79.22,20.13,39.07-1.74,70.71-40.72,111.01-43.29,46.5-2.96,86.33-.56,117.98,37.77,16.53,20.02,30.58,44.2,50.96,60.71"/>
        <path class="cls-31" d="M-79.89,22.81c17.97,4.89,33.51,16.88,41.31,33.65,13.77,29.56,26.5,52.59,50.46,74.76,38.21,35.34,109.99,76.58,105.01,137.43-1.28,15.66-.27,35.97,8.95,50.04,5.2,7.93,17.5,12.37,16.89,23.15-1.7,30.18-11.19,74.93,26.55,88.35,33.18,11.8,67.27-22.5,96.04-32.77,46.46-16.59,99.95-15.38,145.68,2.98,18.31,7.35,24.31,26.99,40.07,37.39,23.58,15.56,49.8,24.89,77.13,25.88,42.15,1.53,75.42-43.43,117.55-48.01,20.92-2.28,44.9-3.39,65.69,2.35,23.49,6.49,35.85,23.73,50.99,41.16,16.7,19.22,30.63,43.83,51.01,60.02"/>
        <path class="cls-36" d="M-88.59,31.01c21.25,5.79,31.32,18.54,41.53,36.75,15.89,28.32,38.24,50.66,62.83,70.96,37.73,31.15,106.78,71.91,89.99,130.56-4.7,16.42.35,33.51,7.57,48.53,4.51,9.37,16.76,20.43,15.96,31.3-2.3,31.61-2.61,72.48,34.65,86.21,32.71,12.06,59.19-16.29,86.85-28.4,46.45-20.34,101-24.35,148.5-5.03,18.79,7.65,27.03,28.05,43.69,38.65,23.02,14.66,47.64,27.58,73.64,31,44.77,5.88,79.89-44.41,123.79-50.81,20.72-3.02,45.15-4.77,65.52,2.52,22.18,7.94,35.2,30.05,50.04,46.68,16.68,18.7,30.5,43.21,50.8,58.9"/>
        <path class="cls-2" d="M-97.19,39.22c22.1,6.44,31.35,21.62,45.05,38.82C-31.27,104.25-5.89,125.59,20.39,146.01c37.91,29.46,98.26,69.12,72.23,123.64-14.9,31.21,23.49,56.14,23.28,85.08-.25,33.78,7.04,71.45,43.47,85.31,30.4,11.57,51.43-8.26,76.42-21.96,45.4-24.9,103.14-33.89,152.18-14.48,19.83,7.85,30.4,28.95,48.47,39.56,23.44,13.76,42.4,32.05,68.62,37.08,47.08,9.03,85.17-45.53,129.87-53.58,20.18-3.63,45.86-6.27,65.36,3.44,20.02,9.98,34.5,35.32,49.19,51.27,16.55,17.97,30.16,42.32,50.28,57.34"/>
        <path class="cls-19" d="M-105.56,47.49c21.67,6.34,35.44,24.51,50.95,39.74C-29.87,111.55-2.13,132.37,25.23,153.32c23.78,18.21,55.06,39.78,64.76,69.86,6.21,19.25-1.72,31.4-12.2,46.93-16.96,25.13,22.86,62.13,24.95,88.7,2.83,35.93,16.4,70.86,52.76,85.53,27.33,11.03,47.7-1.53,70.24-15.96,43.2-27.67,102.45-41.18,151.23-22.7,21.15,8.01,38.32,28.77,54.41,40.2,18.87,13.4,39.11,37.41,65.15,42.72,49.46,10.09,86.75-46.26,132.66-55.2,20-3.89,47.26-7.67,65.19,5.35,18.23,13.24,33.06,38.08,48.33,54.61,16.25,17.6,29.58,41.17,49.4,55.36"/>
        <path class="cls-32" d="M-113.61,55.82c23.27,6.62,40.82,25.04,58.9,40.11C-27.38,118.72,2.19,138.96,29.83,160.81c20.35,16.08,54.45,40.38,55.18,69.8.4,16.18-13.53,29.61-23.34,40.33-11.06,12.1.37,24.76,6.72,36.05,9.41,16.73,18.35,35.65,21.77,54.55,6.65,36.8,26.03,71.74,62.21,86.76,25.55,10.61,46.55,2.39,68.5-11.67,42.31-27.09,96.32-45.1,145.51-28.28,11.44,3.91,19.92,11.81,29.2,19.37,9.86,8.03,22.6,16.48,29.5,25.66,14.1,18.75,39.6,36.91,65.07,43.21,48.9,12.09,88.73-46.29,133.18-55.63,21.7-4.56,47.64-8.2,64.62,9.26,17.11,17.6,30.73,39.13,47.68,55.55,15.91,15.41,28.79,39.56,48.19,52.96"/>
        <path class="cls-9" d="M-119.48,64.52c25.44,7.06,45.56,24.41,66.33,39.88,28.83,21.48,59.75,41.29,86.88,64.17,18.41,15.53,47.62,38.99,41.32,66.59-3.58,15.7-19.39,27.61-30.43,37.2-11.83,10.28,1.05,21.73,7.35,30.94,12.57,18.34,20.4,38.99,26.49,59.87,10.84,37.18,34.45,72.91,71.42,88.83,23.43,10.09,45.67,5.99,66.65-7.63,40.91-26.56,91-47.06,139.64-32.63,12.38,3.67,22.03,11.96,32.43,19.48,12.78,9.23,19.13,20.09,29.67,30.91,18.27,18.75,40.67,35.37,66.06,42.07,48.12,12.68,90.08-46.15,133.05-54.92,24.42-4.98,46.15-7.14,64.02,13.38,15.83,18.19,27.7,39.52,45.46,55.38,16.5,14.74,28.61,37.97,47.85,50.54"/>
        <path class="cls-38" d="M-123.4,73.56c27.13,7.33,50.19,23.64,72.98,39.41,29.41,20.34,61.28,39.86,86.91,63.7,17.1,15.91,39.26,37.6,26.26,62.96-7.72,15.06-23.22,26.1-35.77,34.94-12.1,8.53,2.57,18.89,8.45,25.66,16.15,18.58,23.85,41.24,32.54,63.81,15.05,39.07,41.13,74.03,79.94,91.54,22.5,10.15,43.68,8.13,64.86-4.1,41.28-23.83,84.54-47.47,133.55-35.49,13.39,3.27,24.82,11.87,36.22,19.53,13.9,9.35,17.29,24.41,28.72,35.69,18.56,18.33,42.11,33.82,67.52,40.39,18.29,4.73,45.67-7.45,62.23-15.22,23.26-10.91,45.55-32.91,70.36-38.12,25.49-5.36,46.09-4.52,63.45,17.16,14.72,18.39,25.17,39.73,42.91,54.99,15.95,13.73,28.31,36.27,46.87,47.63"/>
        <path class="cls-34" d="M-126.08,82.8c28.39,7.48,54.79,23.2,79.16,39.12,29.12,19.03,61.53,38.4,84.6,63.11,16.59,17.77,28.28,36.6,11.36,59.35-10.41,14.01-26.55,24.78-39.89,33.26-12.14,7.71,4.81,16.12,10.17,20.92,19.74,17.69,28.72,43.01,39.77,65.96,19.24,39.98,45.98,74.89,87.23,94.66,21.31,10.21,42.23,9.89,63.2-.99,40.97-21.25,79.04-46.26,127.29-37.02,13.15,2.52,30.2,10.46,40.38,19.53,11.9,10.61,15.18,29.25,26.76,39.99,19.32,17.93,43.57,32.15,69.33,38.29,17.03,4.06,43.45-7.45,58.99-13.85,24.46-10.08,47.58-32.4,72.99-37.23,25.48-4.84,46.73-1.82,62.99,20.36,13.46,18.37,22.58,39.92,40.01,54.49,15.04,12.57,27.42,34.2,45.07,44.21"/>
        <path class="cls-13" d="M-128.13,92.14c29.99,7.24,58.3,23.77,84.51,39.51,28.26,16.97,61.25,36.7,80.51,61.96,14.67,19.25,15.52,36.82-2.93,55.77-12.51,12.84-28.33,22.17-42.46,32.3-11.71,8.4,6.43,12.65,12.46,16.66,23.1,15.38,35.47,43.41,48.24,66.79,22.83,41.81,49.74,75.72,92.7,97.92,20.48,10.58,40.92,10.98,61.84,1.42,14.11-6.44,26.19-16.23,40.39-22.53,25.8-11.44,53.19-17.45,80.43-14.54,14.39,1.54,33.42,10.11,42.39,21.82,10.06,13.13,13.83,30.54,26.27,41.4,20.1,17.54,45.11,30.46,71.37,35.87,16.53,3.4,40.46-7.88,56-13.27,25.35-8.79,49.32-31.36,74.75-35.02,25.91-3.73,47.38-.88,63.28,22.91,12.28,18.37,19.79,39.41,36.81,53.78,13.45,11.36,25.8,32.1,42.26,40.19"/>
        <path class="cls-25" d="M-130.1,101.51c31.36,7.43,60.96,23.96,88.5,40.18,26.64,15.69,60.92,34.69,75.33,60.58,20.81,37.38-33.08,63.13-59.33,84.43-10.98,8.91,9.65,10.48,15.42,13.23,27.79,13.29,44.47,45.59,58.74,70.74,23.27,41.01,53.58,73.56,94.87,96.79,19.9,11.19,40,11.6,60.95,3,11.01-4.52,20.85-11.09,31.35-16.59,25.98-13.59,54.69-20.71,82.83-19.14,42.61,2.38,42.36,43.86,69.52,66.27,20.83,17.18,46.77,28.89,73.52,33.22,16.83,2.72,37.21-8.79,53.39-13.7,25.79-7.81,51.08-29.43,76.6-32.22,26.41-2.89,48.3.6,63.42,25.53,10.91,17.97,16.9,39.26,33.33,52.88,12.12,10.05,23.26,28.6,38.24,35.43"/>
        <path class="cls-3" d="M-132.46,110.8c32.34,7.53,63.14,23.9,91.51,40.69,23.69,14.02,57.55,32.64,68.78,59.28,14.69,34.84-51.16,63.34-69.59,81.85-8.98,9.02,13.91,8.75,18.81,10.33,33.11,10.64,50.84,46.36,68.2,73.33,25.32,39.35,56.77,71.42,96.39,96.37,19.24,12.12,39.78,11.55,60.62,3.74,36.85-13.81,67.52-33.54,107.46-33.23,43.4.33,41.91,46.92,69.78,68.63,21.61,16.84,48.41,27.35,75.65,30.46,17.18,1.96,35.85-9.81,52.23-15.13,24.63-7.99,52.9-27.22,77.55-28.99,26.82-1.92,49.18,2.18,63.41,28.18,9.49,17.34,14.16,38.95,29.6,51.78,10.5,8.72,19.88,23.82,32.99,29.67"/>
        <path class="cls-35" d="M-135.59,119.97c33.01,7.57,64.67,23.7,93.53,41.03,19.61,11.78,57.26,32.19,60.76,57.78,4.81,35.18-59.42,57.35-75.32,80.61-6.82,9.97,17.46,7.66,22.98,8.75,34.94,6.9,55.73,46.2,75.05,72.49,27.7,37.7,59.82,71.05,97.78,98.38,18.84,13.57,40.24,10.77,61.05,3.37,34.19-12.16,64.48-28.41,100.68-29.64,42.05-1.43,42.49,50.22,69.52,70.24,22.29,16.52,49.97,25.86,77.66,27.68,17.81,1.17,36.78-11.12,53.61-17.27,13.74-5.03,27.92-8.27,41.57-13.75,11.08-4.45,23.39-11.6,35.06-11.97,27.11-.86,50.04,3.82,63.25,30.83,8.1,16.55,11.11,38.41,25.65,50.5,8.68,7.22,16.91,21.3,29.2,23.43"/>
        <path class="cls-8" d="M-139.79,128.95c33.42,8.02,65.37,23.27,94.53,41.23,17.62,10.86,53.88,31.01,51.15,55.57-4.26,38.39-64.87,50.02-75.69,81.08-4.02,11.55,20.91,7.3,28.07,8.9,33.98,7.59,59.58,45.56,80.14,70.44,29.47,35.65,62.01,70.95,97.31,100.73,18.51,15.62,41.65,9.08,62.41,1.75,31.63-11.18,60.85-22.61,93.95-25.22,40.51-3.19,43.49,53.05,68.91,71.04,22.91,16.21,51.37,24.44,79.42,25,18.9.37,38.91-12.95,56.72-19.9,21.48-8.38,52.33-22.96,74.7-22.73,27.29.27,50.88,5.51,62.95,33.46,6.71,15.54,8.42,37.74,21.49,49.06,10.43,9.04,14.15,13.59,27.73,19.03"/>
        <path class="cls-12" d="M-145.31,137.71c33.4,7.88,65.8,22.79,94.68,41.23,15.86,10.13,48.66,29.8,40.77,52.94-11.46,33.62-66.95,48.2-71.04,82.88-1.55,13.11,28.26,13.14,36.81,15.77,33.5,10.29,57.33,37.5,80.11,62.43,31.3,34.26,62.43,70.55,94.82,103.78,16.88,17.32,45.65,5.74,64.86-1.26,29.22-10.64,55.87-17.22,85.76-20.23,41.2-4.16,43.37,52.03,69.75,70.91,23.18,16.59,53.3,23.05,80.81,22.51,20.18-.4,41.62-14.93,60.48-22.97,20.49-8.74,51.19-21.33,72.86-20.12,27.39,1.53,51.73,7.23,62.51,36.05,5.39,14.39,6.9,36.95,17.15,47.5,7.24,7.45,18.23,12.64,28.58,16.62"/>
        <path class="cls-30" d="M-152.29,146.22c33.19,8.5,65.27,21.87,93.74,41.11,15.05,10.17,42.08,28.38,30.78,50.06-14.29,27.43-67.85,50.87-61.77,85.5,2.94,16.73,30.15,18.54,43.79,22.59,32.52,9.65,56.58,32.13,79.76,55.52,19.41,19.58,39.38,39.74,57.31,61.04,12.44,14.77,21,35.58,32.8,46.93,14.51,13.96,49.18.69,68.56-6.43,25.42-9.34,52.93-15.72,77.88-15.11,38.95.95,44.69,51.85,70.68,70.46,22.96,16.44,54.13,21.87,81.71,20.32,21.8-1.23,44.42-17.31,64.77-26.33,20.42-9.04,49.47-20.23,71.22-18.04,27.28,2.75,52.59,8.99,61.94,38.6,4.26,13.48,1.85,36.79,12.65,45.85,8.88,7.44,19.64,11.45,31.22,15.8"/>
        <path class="cls-22" d="M-160.8,154.48c25.94,6.65,143.05,44.22,113.69,88.05-18.48,27.58-63.55,50.72-48.21,88.4,7.89,19.37,28.96,23.62,48.04,29.25,31.71,9.34,56.05,27.89,79.44,50.1,19.42,18.43,39.26,38.53,55.17,60.67,5.59,7.78,10.77,15.86,15.03,24.46,3.77,7.6,5.56,19.89,13.77,24.17,21.61,11.25,52-2.17,72.79-9.84,25.12-9.27,52.49-20.36,78.14-13.24,15.6,4.33,28.4,17.32,37.28,31.39,8.47,13.42,13.51,32.58,26.84,41.61,23.77,16.1,54.42,20.87,82.01,18.53,47.25-4,88.52-53.98,139.34-46.44,27.08,4.02,53.48,10.78,61.24,41.1,2.89,11.28-.77,37.96,8.53,43.91,9.89,6.32,22.14,12.16,34.72,16.53"/>
        <path class="cls-39" d="M-170.84,162.47c26.02,6.65,135.85,41.06,103.57,85.02-10.55,14.36-27.44,25.5-36.29,41.3-10.16,18.15-2.64,32.79,5.15,50.11,9.84,21.89,27.58,29.55,49.59,35.86,30.96,8.87,55.86,24.75,79.1,45.98,19.35,17.68,38.7,38.08,52.55,61.17,8.48,14.12,12.01,41.23,24.74,47.98,19.7,10.43,54.69-4.69,76.91-12.84,25.28-9.28,52.88-20.3,79.05-11.75,31.95,10.43,31.92,58.3,57.72,75.54,23.76,15.87,53.77,19.89,81.58,17.25,49.64-4.71,90.84-59.06,143.31-49.24,26.52,4.96,54.43,12.61,60.41,43.55,1.89,9.77-4.04,37,6,42.21,12.58,6.53,23.97,13.29,37.55,18.04"/>
        <path class="cls-37" d="M-182.33,170.22c25.88,6.67,127.75,37.92,94.65,82.22-9.68,12.95-25.92,25.28-31.53,41.04-6.93,19.47,7.21,37.12,16.27,53.03,13.28,23.34,26.03,35,52.32,42.75,30.41,8.96,55.73,22.31,78.81,43.03,19.34,17.37,37.42,38.16,49.39,62.3,6.71,13.54,8.55,36.52,22.48,44.31,20.09,11.23,59.09-7.26,79.39-14.54,25.55-9.17,54.13-20.71,80.16-10.46,31.31,12.33,26.7,60.46,52.01,77.75,23.04,15.74,52.81,19.6,80.3,16.58,50.55-5.55,94.4-65.26,147.8-52.67,25.78,6.07,55.67,14.63,59.55,45.97,1.31,10.6-7.37,35.19,4.29,41.28,13.45,7.03,25.61,14.43,40.1,19.58"/>
        <path class="cls-27" d="M-195.1,177.76c27.6,7.21,119.24,34.84,87.26,79.79-8.58,12.06-23.25,25.59-25.43,41.13-2.74,19.51,14.07,41.54,23.7,56.47,15.56,24.13,28.2,39.8,56.81,48.66,29.78,9.22,55.8,20.55,78.52,41.01,19.2,17.29,36.01,38.68,45.94,63.79,5.19,13.12,6.74,31.75,20.59,38.36,22.07,10.54,59.59-7.64,81.54-15.33,25.85-9.05,55.64-21.13,81.5-9.35,29.66,13.5,24.86,61.78,47.32,79.35,20.8,16.27,51.35,19.33,78.4,16.4,50.77-5.5,98.86-71.49,152.23-56.32,25.34,7.2,56.62,16.59,58.5,48.38.68,11.46-9.94,33.78,3.28,40.94,14.14,7.66,27.08,15.56,42.38,21.13"/>
        <path class="cls-20" d="M-208.91,185.11c30.54,8.13,110.47,31.95,81.56,77.82-7.91,12.56-19.12,25.88-17.93,41.57,1.55,20.58,18.38,45.07,28.97,61.1,16.06,24.31,32.06,43.45,61.01,52.81,29.36,9.49,55.91,19.3,78.14,39.73,19.05,17.5,33.54,39.71,42.27,65.36,4.01,11.79,6.54,25.42,19.16,30.64,24.07,9.97,60.18-7.34,83.38-15.28,26.14-8.95,56.77-21.33,83.03-8.4,29.24,14.4,20.9,61.33,43.96,79.99,20.86,16.88,51.22,18.96,76.87,16.19,29.42-3.18,59.99-27.04,86.16-40.8,20.5-10.78,45.86-26.32,69.13-18.48,24.81,8.36,57.74,18.66,57.35,50.8-.15,12.13-11.82,32.98,2.66,41.02,14.87,8.26,28.28,16.9,44.44,22.69"/>
        <path class="cls-40" d="M-223.45,192.35c32.92,8.9,101.97,29.72,77.57,76.34-7.27,13.89-13.65,26.49-9.82,42.34,5.61,23.2,19.81,47.36,32.49,66.26,16.28,24.26,35.7,46.05,64.87,55.73,29.19,9.69,55.99,18.35,77.65,39.03,18.47,17.63,27.96,38.55,37.55,63.22,4.12,10.62,7.76,20.77,19.13,25.2,54.07,21.07,115.78-51.19,169.66-22.09,27.86,15.04,19.24,61.84,40.85,80.37,19.89,17.06,50.31,18.45,75.43,16.18,29.77-2.7,61.35-27.29,88.13-41.55,18.56-9.89,48.08-30.07,70.19-20.96,24.56,10.12,58.74,20.7,56.03,53.25-1.04,12.45-12.7,32.87,2.32,41.39,15.37,8.72,29.47,18.03,46.3,24.26"/>
        <path class="cls-18" d="M-237.41,199.51c35.61,9.26,92.16,28.51,74.25,75.39-15.18,39.74,11.32,83.24,32.88,114.82,16.83,24.65,38.6,47.67,68.31,57.9,27.95,9.63,56.61,16.91,77.09,38.68,16.16,17.19,23.44,35.84,32.75,57.47,4.27,9.93,9.17,18.11,19.62,22.27,55.51,22.1,119.8-51.34,172.8-20,26.78,15.83,16.74,62.57,37.89,80.86,19.18,16.59,49.48,18.24,74.23,16.07,29.86-2.62,62.76-27.4,89.37-41.75,17.15-9.25,51.99-33.79,73.1-23.99,24.45,11.36,57.58,22.89,53.51,55.52-1.61,12.89-13.65,32.74,1.89,41.89,15.86,9.34,30.53,19.14,47.98,25.83"/>
        <path class="cls-14" d="M-250.59,206.82c37.84,10.07,82.58,28.39,71.58,74.8-9.4,39.65,20.49,90.61,41.44,120.85,17.47,25.2,40.93,48.88,71.32,59.65,27.5,9.75,56.93,16.47,76.41,38.52,13.23,14.98,19.41,32.12,28.59,50.22,4.75,9.36,9.88,16.14,20.01,20.12,56.86,22.35,123.51-50.37,175.81-17.51,26.21,16.47,13.81,63.34,35.2,81.38,19.1,16.1,49.17,18.26,73.19,15.95,29.68-2.86,62.92-26.98,89.99-41.57,18.29-9.86,56.96-37.22,77.79-26.98,23.3,11.46,54.97,24.6,49.57,56.81-2.2,13.17-14.33,33.26,1.4,42.8,16.3,9.89,31.5,20.24,49.51,27.38"/>
        <path class="cls-6" d="M-263.23,214.36c39.91,10.83,73.66,29.25,69.92,74.54-3.4,41.23,26.29,94.98,48.22,126.26,17.98,25.66,42.93,50.07,73.92,61.24,27.02,9.74,57.26,16.12,75.58,38.35,14.08,17.08,22.17,51.53,45.43,60.67,57.76,22.71,127.08-48.81,178.68-14.72,25.68,16.96,11.32,64.07,32.79,81.96,18.85,15.7,48.68,18.03,72.34,15.83,29.7-2.76,63-26.71,90.15-41.2,19.38-10.35,60.68-40.38,82.52-29.91,22.9,10.98,52.41,26.51,46.04,57.64-2.67,13.02-15.39,34.16.49,43.77,16.61,10.05,32.38,21.32,50.93,28.92"/>
        <path class="cls-29" d="M-275.08,222.12c41.29,11.55,65.95,31.17,69.06,74.59,3.13,43.7,29.18,96.9,53.17,130.75,18.45,26.03,44.72,51.17,76.08,62.86,26.83,10,56.61,15.65,74.6,37.94,12.68,15.71,22.14,42.55,42.94,51.21,28.85,12,61.65,1.73,90.07-6.52,27.71-8.04,66.19-22.92,91.33-5.22,24.8,17.46,8.75,64.77,30.64,82.59,18.9,15.38,48.31,17.82,71.71,15.72,29.76-2.67,63.42-27.04,90.78-41.32,20.42-10.66,63.5-42.35,86.27-32.11,22.64,10.18,50.57,28.13,42.81,58.14-3.41,13.19-17.04,34.56-.72,44.63,16.81,10.37,32.96,23.53,52.25,30.43"/>
        <path class="cls-11" d="M-285.97,230.09c41.78,12.45,59.9,33.84,68.77,74.96,9.97,46.22,29.55,96.69,56.33,134.04,18.92,26.4,46.25,51.9,77.88,64.5,26.22,10.44,53.91,15.05,73.4,37.18,12.92,14.67,22.38,34.03,41.17,42.51,28.97,13.08,62.07,4.26,91.13-3.9,27.99-7.86,67.75-23.12,92.83-4.81,24.35,17.77,6.69,65.44,28.75,83.26,18.32,14.8,47.99,17.95,71.3,15.62,30.15-3.01,63.89-27.55,91.13-41.53,21.72-11.15,66.15-43.69,89.73-33.97,22.56,9.3,48.8,29.02,39.91,58.3-4.06,13.39-19.08,34.74-2.16,45.44,17.4,11.01,33.9,23.63,53.51,31.91"/>
        <path class="cls-5" d="M-295.78,238.23c41.43,13.19,54.54,39.05,68.83,75.66,17.68,45.28,28,95.07,57.8,136,19.64,26.98,47.18,51.56,79.09,65.41,25.26,10.96,50.73,15.96,71.22,33.31,14.24,12.06,24.38,29.01,41.13,38.48,26.95,15.23,62.98,6.64,92.14-1.3,28.25-7.69,69.2-23.32,94.18-4.46,23.89,18.03,4.9,66.12,27.11,83.97,18.29,14.7,48.02,17.94,71.1,15.55,30.04-3.11,63.71-27.88,91.24-41.86,22.68-11.51,68.63-44.7,92.8-35.48,22.87,8.72,47.64,28.97,37.33,57.96-4.83,13.58-21.34,35.01-3.7,46.43,17.76,11.49,34.65,24.68,54.73,33.35"/>
      </g>
    </g>
    <text class="cls-43" transform="translate(675.75 492.98)"><tspan class="cls-47" x="0" y="0">F</tspan><tspan class="cls-45" x="3.69" y="0">r</tspan><tspan class="cls-46" x="6.22" y="0">eepi</tspan><tspan class="cls-48" x="20.66" y="0">k</tspan><tspan x="24.53" y="0">.</tspan><tspan class="cls-42" x="26.18" y="0">c</tspan><tspan x="29.72" y="0">om</tspan></text>
  </g>
</svg>